<svg xmlns="http://www.w3.org/2000/svg" xmlns:xlink="http://www.w3.org/1999/xlink" width="500" zoomAndPan="magnify" viewBox="0 0 375 374.999991" height="500" preserveAspectRatio="xMidYMid meet" version="1.0"><defs><g/><clipPath id="id1"><path d="M 37.5 37.5 L 333.75 37.5 L 333.75 333.75 L 37.5 333.75 Z M 37.5 37.5 " clip-rule="nonzero"/></clipPath></defs><path fill="rgb(62.748718%, 65.879822%, 69.799805%)" d="M 304.125 328.8125 L 67.125 328.8125 C 61.667969 328.8125 57.25 324.394531 57.25 318.9375 L 57.25 304.125 L 314 304.125 L 314 318.9375 C 314 324.394531 309.582031 328.8125 304.125 328.8125 " fill-opacity="1" fill-rule="nonzero"/><path fill="rgb(62.748718%, 65.879822%, 69.799805%)" d="M 230.0625 239.9375 L 141.1875 239.9375 L 141.1875 205.375 L 230.0625 205.375 L 230.0625 239.9375 " fill-opacity="1" fill-rule="nonzero"/><path fill="rgb(96.469116%, 90.589905%, 84.709167%)" d="M 279.4375 42.4375 L 91.8125 42.4375 C 83.632812 42.4375 77 49.070312 77 57.25 L 77 195.5 C 77 203.675781 83.632812 210.3125 91.8125 210.3125 L 279.4375 210.3125 C 287.613281 210.3125 294.25 203.675781 294.25 195.5 L 294.25 57.25 C 294.25 49.070312 287.613281 42.4375 279.4375 42.4375 " fill-opacity="1" fill-rule="nonzero"/><path fill="rgb(12.548828%, 78.819275%, 59.21936%)" d="M 274.5 126.375 C 274.5 145.796875 273.304688 160.457031 272.089844 170.332031 C 270.96875 179.511719 263.738281 186.6875 254.558594 187.628906 C 241.324219 189 218.933594 190.5625 185.625 190.5625 C 152.316406 190.5625 129.921875 189 116.691406 187.628906 C 107.511719 186.6875 100.28125 179.511719 99.160156 170.332031 C 97.945312 160.457031 96.75 145.796875 96.75 126.375 C 96.75 106.953125 97.945312 92.292969 99.160156 82.417969 C 100.28125 73.238281 107.511719 66.0625 116.691406 65.117188 C 129.921875 63.75 152.316406 62.1875 185.625 62.1875 C 218.933594 62.1875 241.324219 63.75 254.558594 65.117188 C 263.738281 66.0625 270.96875 73.238281 272.089844 82.417969 C 273.304688 92.292969 274.5 106.953125 274.5 126.375 " fill-opacity="1" fill-rule="nonzero"/><path fill="rgb(96.469116%, 90.589905%, 84.709167%)" d="M 318.9375 309.0625 L 52.3125 309.0625 C 46.855469 309.0625 42.4375 304.644531 42.4375 299.1875 L 42.4375 244.875 C 42.4375 239.417969 46.855469 235 52.3125 235 L 318.9375 235 C 324.394531 235 328.8125 239.417969 328.8125 244.875 L 328.8125 299.1875 C 328.8125 304.644531 324.394531 309.0625 318.9375 309.0625 " fill-opacity="1" fill-rule="nonzero"/><path fill="rgb(18.818665%, 18.818665%, 18.818665%)" d="M 104.058594 169.730469 C 102.980469 160.898438 101.6875 146.242188 101.6875 126.375 C 101.6875 106.507812 102.980469 91.851562 104.058594 83.015625 C 104.910156 76.09375 110.308594 70.730469 117.214844 70.039062 C 130.019531 68.707031 152.296875 67.125 185.625 67.125 C 218.953125 67.125 241.230469 68.707031 254.035156 70.039062 C 260.941406 70.730469 266.339844 76.09375 267.191406 83.015625 C 268.269531 91.851562 269.5625 106.507812 269.5625 126.375 C 269.5625 146.242188 268.269531 160.898438 267.191406 169.730469 C 266.339844 176.65625 260.941406 182.019531 254.035156 182.710938 C 241.230469 184.042969 218.953125 185.625 185.625 185.625 C 152.296875 185.625 130.019531 184.042969 117.214844 182.710938 C 110.308594 182.019531 104.910156 176.65625 104.058594 169.730469 Z M 255.058594 192.550781 C 266.554688 191.351562 275.578125 182.460938 276.988281 170.929688 C 278.628906 157.695312 279.4375 142.710938 279.4375 126.375 C 279.4375 110.039062 278.628906 95.050781 276.988281 81.820312 C 275.578125 70.289062 266.554688 61.398438 255.058594 60.199219 C 242 58.851562 219.378906 57.25 185.625 57.25 C 151.871094 57.25 129.25 58.851562 116.191406 60.199219 C 104.695312 61.398438 95.667969 70.289062 94.261719 81.820312 C 92.621094 95.050781 91.8125 110.039062 91.8125 126.375 C 91.8125 142.710938 92.621094 157.695312 94.261719 170.929688 C 95.667969 182.460938 104.695312 191.351562 116.191406 192.550781 C 129.25 193.898438 151.871094 195.5 185.625 195.5 C 219.378906 195.5 242 193.898438 255.058594 192.550781 " fill-opacity="1" fill-rule="nonzero"/><g clip-path="url(#id1)"><path fill="rgb(18.818665%, 18.818665%, 18.818665%)" d="M 309.0625 318.9375 C 309.0625 321.65625 306.84375 323.875 304.125 323.875 L 67.125 323.875 C 64.40625 323.875 62.1875 321.65625 62.1875 318.9375 L 62.1875 314 L 309.0625 314 Z M 146.125 230.0625 L 146.125 215.25 L 225.125 215.25 L 225.125 230.0625 Z M 81.9375 195.5 L 81.9375 57.25 C 81.9375 51.8125 86.375 47.375 91.8125 47.375 L 279.4375 47.375 C 284.875 47.375 289.3125 51.8125 289.3125 57.25 L 289.3125 195.5 C 289.3125 200.9375 284.875 205.375 279.4375 205.375 L 91.8125 205.375 C 86.375 205.375 81.9375 200.9375 81.9375 195.5 Z M 318.9375 230.0625 L 235 230.0625 L 235 215.25 L 279.4375 215.25 C 290.335938 215.25 299.1875 206.398438 299.1875 195.5 L 299.1875 57.25 C 299.1875 46.351562 290.335938 37.5 279.4375 37.5 L 91.8125 37.5 C 80.914062 37.5 72.0625 46.351562 72.0625 57.25 L 72.0625 195.5 C 72.0625 206.398438 80.914062 215.25 91.8125 215.25 L 136.25 215.25 L 136.25 230.0625 L 96.75 230.0625 C 94.03125 230.0625 91.8125 232.28125 91.8125 235 C 91.8125 237.71875 94.03125 239.9375 96.75 239.9375 L 318.9375 239.9375 C 321.65625 239.9375 323.875 242.15625 323.875 244.875 L 323.875 299.1875 C 323.875 301.90625 321.65625 304.125 318.9375 304.125 L 52.3125 304.125 C 49.59375 304.125 47.375 301.90625 47.375 299.1875 L 47.375 244.875 C 47.375 242.15625 49.59375 239.9375 52.3125 239.9375 L 72.0625 239.9375 C 74.78125 239.9375 77 237.71875 77 235 C 77 232.28125 74.78125 230.0625 72.0625 230.0625 L 52.3125 230.0625 C 44.136719 230.0625 37.5 236.695312 37.5 244.875 L 37.5 299.1875 C 37.5 307.363281 44.136719 314 52.3125 314 L 52.3125 318.9375 C 52.3125 327.113281 58.945312 333.75 67.125 333.75 L 304.125 333.75 C 312.300781 333.75 318.9375 327.113281 318.9375 318.9375 L 318.9375 314 C 327.113281 314 333.75 307.363281 333.75 299.1875 L 333.75 244.875 C 333.75 236.695312 327.113281 230.0625 318.9375 230.0625 " fill-opacity="1" fill-rule="nonzero"/></g><path fill="rgb(18.818665%, 18.818665%, 18.818665%)" d="M 57.25 279.4375 L 57.25 289.3125 C 57.25 292.03125 59.46875 294.25 62.1875 294.25 C 64.90625 294.25 67.125 292.03125 67.125 289.3125 L 67.125 279.4375 C 67.125 276.71875 64.90625 274.5 62.1875 274.5 C 59.46875 274.5 57.25 276.71875 57.25 279.4375 " fill-opacity="1" fill-rule="nonzero"/><path fill="rgb(18.818665%, 18.818665%, 18.818665%)" d="M 81.9375 294.25 C 84.65625 294.25 86.875 292.03125 86.875 289.3125 L 86.875 279.4375 C 86.875 276.71875 84.65625 274.5 81.9375 274.5 C 79.21875 274.5 77 276.71875 77 279.4375 L 77 289.3125 C 77 292.03125 79.21875 294.25 81.9375 294.25 " fill-opacity="1" fill-rule="nonzero"/><path fill="rgb(18.818665%, 18.818665%, 18.818665%)" d="M 106.625 289.3125 L 106.625 279.4375 C 106.625 276.71875 104.40625 274.5 101.6875 274.5 C 98.96875 274.5 96.75 276.71875 96.75 279.4375 L 96.75 289.3125 C 96.75 292.03125 98.96875 294.25 101.6875 294.25 C 104.40625 294.25 106.625 292.03125 106.625 289.3125 " fill-opacity="1" fill-rule="nonzero"/><path fill="rgb(18.818665%, 18.818665%, 18.818665%)" d="M 126.375 289.3125 L 126.375 279.4375 C 126.375 276.71875 124.15625 274.5 121.4375 274.5 C 118.71875 274.5 116.5 276.71875 116.5 279.4375 L 116.5 289.3125 C 116.5 292.03125 118.71875 294.25 121.4375 294.25 C 124.15625 294.25 126.375 292.03125 126.375 289.3125 " fill-opacity="1" fill-rule="nonzero"/><path fill="rgb(18.818665%, 18.818665%, 18.818665%)" d="M 146.125 289.3125 L 146.125 279.4375 C 146.125 276.71875 143.90625 274.5 141.1875 274.5 C 138.46875 274.5 136.25 276.71875 136.25 279.4375 L 136.25 289.3125 C 136.25 292.03125 138.46875 294.25 141.1875 294.25 C 143.90625 294.25 146.125 292.03125 146.125 289.3125 " fill-opacity="1" fill-rule="nonzero"/><path fill="rgb(18.818665%, 18.818665%, 18.818665%)" d="M 165.875 289.3125 L 165.875 279.4375 C 165.875 276.71875 163.65625 274.5 160.9375 274.5 C 158.21875 274.5 156 276.71875 156 279.4375 L 156 289.3125 C 156 292.03125 158.21875 294.25 160.9375 294.25 C 163.65625 294.25 165.875 292.03125 165.875 289.3125 " fill-opacity="1" fill-rule="nonzero"/><path fill="rgb(18.818665%, 18.818665%, 18.818665%)" d="M 185.625 289.3125 L 185.625 279.4375 C 185.625 276.71875 183.40625 274.5 180.6875 274.5 C 177.96875 274.5 175.75 276.71875 175.75 279.4375 L 175.75 289.3125 C 175.75 292.03125 177.96875 294.25 180.6875 294.25 C 183.40625 294.25 185.625 292.03125 185.625 289.3125 " fill-opacity="1" fill-rule="nonzero"/><path fill="rgb(18.818665%, 18.818665%, 18.818665%)" d="M 309.0625 259.6875 C 311.78125 259.6875 314 257.46875 314 254.75 C 314 252.03125 311.78125 249.8125 309.0625 249.8125 L 269.5625 249.8125 C 266.84375 249.8125 264.625 252.03125 264.625 254.75 C 264.625 257.46875 266.84375 259.6875 269.5625 259.6875 L 309.0625 259.6875 " fill-opacity="1" fill-rule="nonzero"/><path fill="rgb(18.818665%, 18.818665%, 18.818665%)" d="M 77 254.75 C 77 252.03125 74.78125 249.8125 72.0625 249.8125 L 62.1875 249.8125 C 59.46875 249.8125 57.25 252.03125 57.25 254.75 C 57.25 257.46875 59.46875 259.6875 62.1875 259.6875 L 72.0625 259.6875 C 74.78125 259.6875 77 257.46875 77 254.75 " fill-opacity="1" fill-rule="nonzero"/><path fill="rgb(18.818665%, 18.818665%, 18.818665%)" d="M 121.4375 96.75 C 122.710938 96.75 123.964844 96.269531 124.929688 95.304688 L 129.867188 90.367188 C 131.792969 88.4375 131.792969 85.3125 129.867188 83.382812 C 127.9375 81.457031 124.8125 81.457031 122.882812 83.382812 L 117.945312 88.320312 C 116.019531 90.25 116.019531 93.375 117.945312 95.304688 C 118.910156 96.269531 120.164062 96.75 121.4375 96.75 " fill-opacity="1" fill-rule="nonzero"/><path fill="rgb(18.818665%, 18.818665%, 18.818665%)" d="M 121.4375 121.4375 C 122.710938 121.4375 123.964844 120.957031 124.929688 119.992188 L 154.554688 90.367188 C 156.480469 88.4375 156.480469 85.3125 154.554688 83.382812 C 152.625 81.457031 149.5 81.457031 147.570312 83.382812 L 117.945312 113.007812 C 116.019531 114.9375 116.019531 118.0625 117.945312 119.992188 C 118.910156 120.957031 120.164062 121.4375 121.4375 121.4375 " fill-opacity="1" fill-rule="nonzero"/><path fill="rgb(18.818665%, 18.818665%, 18.818665%)" d="M 184.179688 83.382812 C 182.25 81.457031 179.125 81.457031 177.195312 83.382812 L 117.945312 142.632812 C 116.019531 144.5625 116.019531 147.6875 117.945312 149.617188 C 118.910156 150.582031 120.164062 151.0625 121.4375 151.0625 C 122.710938 151.0625 123.964844 150.582031 124.929688 149.617188 L 184.179688 90.367188 C 186.105469 88.4375 186.105469 85.3125 184.179688 83.382812 " fill-opacity="1" fill-rule="nonzero"/><g fill="rgb(18.818665%, 18.818665%, 18.818665%)" fill-opacity="1"><g transform="translate(180.724271, 171.863845)"><g><path d="M 17.605469 -43.28125 L 0.488281 0 L 11.675781 0 L 14.058594 -6.296875 L 28.671875 -6.296875 L 31.054688 0 L 42.855469 0 L 25.0625 -43.28125 Z M 21.394531 -26.042969 L 24.699219 -16.75 L 24.941406 -16.015625 L 17.851562 -16.015625 L 18.21875 -16.996094 Z M 21.394531 -26.042969 "/></g></g></g><g fill="rgb(18.818665%, 18.818665%, 18.818665%)" fill-opacity="1"><g transform="translate(224.734566, 171.863845)"><g><path d="M 22.925781 -42.792969 L 3.117188 -42.792969 L 3.117188 0 L 22.800781 0 C 31.789062 0 36.496094 -6.90625 36.496094 -13.816406 C 36.496094 -17.421875 34.664062 -21.152344 30.136719 -23.476562 C 32.949219 -25.429688 34.234375 -28.425781 34.234375 -31.359375 C 34.234375 -36.984375 29.710938 -42.792969 22.925781 -42.792969 Z M 21.335938 -27.328125 L 13.449219 -27.328125 L 13.449219 -33.316406 L 21.457031 -33.316406 C 23.109375 -33.316406 24.023438 -31.851562 24.023438 -30.382812 C 24.023438 -28.855469 23.167969 -27.328125 21.335938 -27.328125 Z M 22.800781 -9.902344 L 13.449219 -9.902344 L 13.449219 -17.667969 L 22.800781 -17.667969 C 25.003906 -17.667969 26.105469 -15.710938 26.105469 -13.753906 C 26.105469 -11.796875 25.003906 -9.902344 22.800781 -9.902344 Z M 22.800781 -9.902344 "/></g></g></g></svg>