<svg xmlns="http://www.w3.org/2000/svg" xmlns:xlink="http://www.w3.org/1999/xlink" width="200" zoomAndPan="magnify" viewBox="0 0 375 74.999997" height="40" preserveAspectRatio="xMidYMid meet" version="1.0"><defs><g/><clipPath id="id1"><path d="M 7.5 11.78125 L 59.25 11.78125 L 59.25 63.53125 L 7.5 63.53125 Z M 7.5 11.78125 " clip-rule="nonzero"/></clipPath></defs><path fill="rgb(62.748718%, 65.879822%, 69.799805%)" d="M 54.074219 62.667969 L 12.675781 62.667969 C 11.722656 62.667969 10.949219 61.898438 10.949219 60.945312 L 10.949219 58.355469 L 55.800781 58.355469 L 55.800781 60.945312 C 55.800781 61.898438 55.027344 62.667969 54.074219 62.667969 " fill-opacity="1" fill-rule="nonzero"/><path fill="rgb(62.748718%, 65.879822%, 69.799805%)" d="M 41.136719 47.144531 L 25.613281 47.144531 L 25.613281 41.105469 L 41.136719 41.105469 L 41.136719 47.144531 " fill-opacity="1" fill-rule="nonzero"/><path fill="rgb(96.469116%, 90.589905%, 84.709167%)" d="M 49.761719 12.644531 L 16.988281 12.644531 C 15.558594 12.644531 14.398438 13.804688 14.398438 15.230469 L 14.398438 39.382812 C 14.398438 40.808594 15.558594 41.96875 16.988281 41.96875 L 49.761719 41.96875 C 51.191406 41.96875 52.351562 40.808594 52.351562 39.382812 L 52.351562 15.230469 C 52.351562 13.804688 51.191406 12.644531 49.761719 12.644531 " fill-opacity="1" fill-rule="nonzero"/><path fill="rgb(12.548828%, 78.819275%, 59.21936%)" d="M 48.898438 27.308594 C 48.898438 30.699219 48.691406 33.261719 48.480469 34.984375 C 48.285156 36.589844 47.019531 37.84375 45.417969 38.007812 C 43.105469 38.246094 39.195312 38.519531 33.375 38.519531 C 27.554688 38.519531 23.644531 38.246094 21.332031 38.007812 C 19.730469 37.84375 18.464844 36.589844 18.269531 34.984375 C 18.058594 33.261719 17.851562 30.699219 17.851562 27.308594 C 17.851562 23.914062 18.058594 21.355469 18.269531 19.628906 C 18.464844 18.023438 19.730469 16.773438 21.332031 16.605469 C 23.644531 16.367188 27.554688 16.09375 33.375 16.09375 C 39.195312 16.09375 43.105469 16.367188 45.417969 16.605469 C 47.019531 16.773438 48.285156 18.023438 48.480469 19.628906 C 48.691406 21.355469 48.898438 23.914062 48.898438 27.308594 " fill-opacity="1" fill-rule="nonzero"/><path fill="rgb(96.469116%, 90.589905%, 84.709167%)" d="M 56.664062 59.21875 L 10.085938 59.21875 C 9.132812 59.21875 8.363281 58.449219 8.363281 57.496094 L 8.363281 48.007812 C 8.363281 47.054688 9.132812 46.28125 10.085938 46.28125 L 56.664062 46.28125 C 57.617188 46.28125 58.386719 47.054688 58.386719 48.007812 L 58.386719 57.496094 C 58.386719 58.449219 57.617188 59.21875 56.664062 59.21875 " fill-opacity="1" fill-rule="nonzero"/><path fill="rgb(18.818665%, 18.818665%, 18.818665%)" d="M 19.125 34.878906 C 18.9375 33.335938 18.710938 30.777344 18.710938 27.308594 C 18.710938 23.835938 18.9375 21.277344 19.125 19.734375 C 19.273438 18.523438 20.21875 17.585938 21.425781 17.464844 C 23.660156 17.234375 27.554688 16.957031 33.375 16.957031 C 39.195312 16.957031 43.089844 17.234375 45.324219 17.464844 C 46.53125 17.585938 47.476562 18.523438 47.625 19.734375 C 47.8125 21.277344 48.039062 23.835938 48.039062 27.308594 C 48.039062 30.777344 47.8125 33.335938 47.625 34.878906 C 47.476562 36.089844 46.53125 37.027344 45.324219 37.148438 C 43.089844 37.378906 39.195312 37.65625 33.375 37.65625 C 27.554688 37.65625 23.660156 37.378906 21.425781 37.148438 C 20.21875 37.027344 19.273438 36.089844 19.125 34.878906 Z M 45.503906 38.867188 C 47.511719 38.65625 49.089844 37.105469 49.335938 35.089844 C 49.621094 32.777344 49.761719 30.160156 49.761719 27.308594 C 49.761719 24.453125 49.621094 21.835938 49.335938 19.523438 C 49.089844 17.507812 47.511719 15.957031 45.503906 15.746094 C 43.222656 15.511719 39.269531 15.230469 33.375 15.230469 C 27.480469 15.230469 23.527344 15.511719 21.246094 15.746094 C 19.238281 15.957031 17.660156 17.507812 17.414062 19.523438 C 17.128906 21.835938 16.988281 24.453125 16.988281 27.308594 C 16.988281 30.160156 17.128906 32.777344 17.414062 35.089844 C 17.660156 37.105469 19.238281 38.65625 21.246094 38.867188 C 23.527344 39.101562 27.480469 39.382812 33.375 39.382812 C 39.269531 39.382812 43.222656 39.101562 45.503906 38.867188 " fill-opacity="1" fill-rule="nonzero"/><g clip-path="url(#id1)"><path fill="rgb(18.818665%, 18.818665%, 18.818665%)" d="M 54.9375 60.945312 C 54.9375 61.417969 54.550781 61.808594 54.074219 61.808594 L 12.675781 61.808594 C 12.199219 61.808594 11.8125 61.417969 11.8125 60.945312 L 11.8125 60.082031 L 54.9375 60.082031 Z M 26.476562 45.417969 L 26.476562 42.832031 L 40.273438 42.832031 L 40.273438 45.417969 Z M 15.261719 39.382812 L 15.261719 15.230469 C 15.261719 14.28125 16.039062 13.507812 16.988281 13.507812 L 49.761719 13.507812 C 50.710938 13.507812 51.488281 14.28125 51.488281 15.230469 L 51.488281 39.382812 C 51.488281 40.332031 50.710938 41.105469 49.761719 41.105469 L 16.988281 41.105469 C 16.039062 41.105469 15.261719 40.332031 15.261719 39.382812 Z M 56.664062 45.417969 L 42 45.417969 L 42 42.832031 L 49.761719 42.832031 C 51.667969 42.832031 53.210938 41.285156 53.210938 39.382812 L 53.210938 15.230469 C 53.210938 13.328125 51.667969 11.78125 49.761719 11.78125 L 16.988281 11.78125 C 15.082031 11.78125 13.539062 13.328125 13.539062 15.230469 L 13.539062 39.382812 C 13.539062 41.285156 15.082031 42.832031 16.988281 42.832031 L 24.75 42.832031 L 24.75 45.417969 L 17.851562 45.417969 C 17.375 45.417969 16.988281 45.808594 16.988281 46.28125 C 16.988281 46.757812 17.375 47.144531 17.851562 47.144531 L 56.664062 47.144531 C 57.136719 47.144531 57.523438 47.53125 57.523438 48.007812 L 57.523438 57.496094 C 57.523438 57.96875 57.136719 58.355469 56.664062 58.355469 L 10.085938 58.355469 C 9.613281 58.355469 9.226562 57.96875 9.226562 57.496094 L 9.226562 48.007812 C 9.226562 47.53125 9.613281 47.144531 10.085938 47.144531 L 13.539062 47.144531 C 14.011719 47.144531 14.398438 46.757812 14.398438 46.28125 C 14.398438 45.808594 14.011719 45.417969 13.539062 45.417969 L 10.085938 45.417969 C 8.660156 45.417969 7.5 46.578125 7.5 48.007812 L 7.5 57.496094 C 7.5 58.921875 8.660156 60.082031 10.085938 60.082031 L 10.085938 60.945312 C 10.085938 62.371094 11.246094 63.53125 12.675781 63.53125 L 54.074219 63.53125 C 55.503906 63.53125 56.664062 62.371094 56.664062 60.945312 L 56.664062 60.082031 C 58.089844 60.082031 59.25 58.921875 59.25 57.496094 L 59.25 48.007812 C 59.25 46.578125 58.089844 45.417969 56.664062 45.417969 " fill-opacity="1" fill-rule="nonzero"/></g><path fill="rgb(18.818665%, 18.818665%, 18.818665%)" d="M 10.949219 54.042969 L 10.949219 55.769531 C 10.949219 56.246094 11.335938 56.632812 11.8125 56.632812 C 12.289062 56.632812 12.675781 56.246094 12.675781 55.769531 L 12.675781 54.042969 C 12.675781 53.570312 12.289062 53.183594 11.8125 53.183594 C 11.335938 53.183594 10.949219 53.570312 10.949219 54.042969 " fill-opacity="1" fill-rule="nonzero"/><path fill="rgb(18.818665%, 18.818665%, 18.818665%)" d="M 15.261719 56.632812 C 15.738281 56.632812 16.125 56.246094 16.125 55.769531 L 16.125 54.042969 C 16.125 53.570312 15.738281 53.183594 15.261719 53.183594 C 14.789062 53.183594 14.398438 53.570312 14.398438 54.042969 L 14.398438 55.769531 C 14.398438 56.246094 14.789062 56.632812 15.261719 56.632812 " fill-opacity="1" fill-rule="nonzero"/><path fill="rgb(18.818665%, 18.818665%, 18.818665%)" d="M 19.574219 55.769531 L 19.574219 54.042969 C 19.574219 53.570312 19.1875 53.183594 18.710938 53.183594 C 18.238281 53.183594 17.851562 53.570312 17.851562 54.042969 L 17.851562 55.769531 C 17.851562 56.246094 18.238281 56.632812 18.710938 56.632812 C 19.1875 56.632812 19.574219 56.246094 19.574219 55.769531 " fill-opacity="1" fill-rule="nonzero"/><path fill="rgb(18.818665%, 18.818665%, 18.818665%)" d="M 23.023438 55.769531 L 23.023438 54.042969 C 23.023438 53.570312 22.636719 53.183594 22.164062 53.183594 C 21.6875 53.183594 21.300781 53.570312 21.300781 54.042969 L 21.300781 55.769531 C 21.300781 56.246094 21.6875 56.632812 22.164062 56.632812 C 22.636719 56.632812 23.023438 56.246094 23.023438 55.769531 " fill-opacity="1" fill-rule="nonzero"/><path fill="rgb(18.818665%, 18.818665%, 18.818665%)" d="M 26.476562 55.769531 L 26.476562 54.042969 C 26.476562 53.570312 26.085938 53.183594 25.613281 53.183594 C 25.136719 53.183594 24.75 53.570312 24.75 54.042969 L 24.75 55.769531 C 24.75 56.246094 25.136719 56.632812 25.613281 56.632812 C 26.085938 56.632812 26.476562 56.246094 26.476562 55.769531 " fill-opacity="1" fill-rule="nonzero"/><path fill="rgb(18.818665%, 18.818665%, 18.818665%)" d="M 29.925781 55.769531 L 29.925781 54.042969 C 29.925781 53.570312 29.539062 53.183594 29.0625 53.183594 C 28.585938 53.183594 28.199219 53.570312 28.199219 54.042969 L 28.199219 55.769531 C 28.199219 56.246094 28.585938 56.632812 29.0625 56.632812 C 29.539062 56.632812 29.925781 56.246094 29.925781 55.769531 " fill-opacity="1" fill-rule="nonzero"/><path fill="rgb(18.818665%, 18.818665%, 18.818665%)" d="M 33.375 55.769531 L 33.375 54.042969 C 33.375 53.570312 32.988281 53.183594 32.511719 53.183594 C 32.039062 53.183594 31.648438 53.570312 31.648438 54.042969 L 31.648438 55.769531 C 31.648438 56.246094 32.039062 56.632812 32.511719 56.632812 C 32.988281 56.632812 33.375 56.246094 33.375 55.769531 " fill-opacity="1" fill-rule="nonzero"/><path fill="rgb(18.818665%, 18.818665%, 18.818665%)" d="M 54.9375 50.59375 C 55.414062 50.59375 55.800781 50.207031 55.800781 49.730469 C 55.800781 49.257812 55.414062 48.871094 54.9375 48.871094 L 48.039062 48.871094 C 47.5625 48.871094 47.175781 49.257812 47.175781 49.730469 C 47.175781 50.207031 47.5625 50.59375 48.039062 50.59375 L 54.9375 50.59375 " fill-opacity="1" fill-rule="nonzero"/><path fill="rgb(18.818665%, 18.818665%, 18.818665%)" d="M 14.398438 49.730469 C 14.398438 49.257812 14.011719 48.871094 13.539062 48.871094 L 11.8125 48.871094 C 11.335938 48.871094 10.949219 49.257812 10.949219 49.730469 C 10.949219 50.207031 11.335938 50.59375 11.8125 50.59375 L 13.539062 50.59375 C 14.011719 50.59375 14.398438 50.207031 14.398438 49.730469 " fill-opacity="1" fill-rule="nonzero"/><path fill="rgb(18.818665%, 18.818665%, 18.818665%)" d="M 22.164062 22.132812 C 22.386719 22.132812 22.605469 22.046875 22.773438 21.878906 L 23.636719 21.015625 C 23.972656 20.679688 23.972656 20.132812 23.636719 19.796875 C 23.296875 19.460938 22.753906 19.460938 22.414062 19.796875 L 21.550781 20.660156 C 21.214844 20.996094 21.214844 21.542969 21.550781 21.878906 C 21.722656 22.046875 21.941406 22.132812 22.164062 22.132812 " fill-opacity="1" fill-rule="nonzero"/><path fill="rgb(18.818665%, 18.818665%, 18.818665%)" d="M 22.164062 26.445312 C 22.386719 26.445312 22.605469 26.359375 22.773438 26.191406 L 27.949219 21.015625 C 28.285156 20.679688 28.285156 20.132812 27.949219 19.796875 C 27.609375 19.460938 27.066406 19.460938 26.726562 19.796875 L 21.550781 24.972656 C 21.214844 25.308594 21.214844 25.855469 21.550781 26.191406 C 21.722656 26.359375 21.941406 26.445312 22.164062 26.445312 " fill-opacity="1" fill-rule="nonzero"/><path fill="rgb(18.818665%, 18.818665%, 18.818665%)" d="M 33.121094 19.796875 C 32.785156 19.460938 32.238281 19.460938 31.902344 19.796875 L 21.550781 30.148438 C 21.214844 30.484375 21.214844 31.03125 21.550781 31.367188 C 21.722656 31.535156 21.941406 31.621094 22.164062 31.621094 C 22.386719 31.621094 22.605469 31.535156 22.773438 31.367188 L 33.121094 21.015625 C 33.460938 20.679688 33.460938 20.132812 33.121094 19.796875 " fill-opacity="1" fill-rule="nonzero"/><g fill="rgb(100%, 100%, 100%)" fill-opacity="1"><g transform="translate(70.452501, 52.316381)"><g><path d="M 12.273438 -30.175781 L 0.339844 0 L 8.140625 0 L 9.804688 -4.390625 L 19.988281 -4.390625 L 21.652344 0 L 29.878906 0 L 17.476562 -30.175781 Z M 14.917969 -18.15625 L 17.21875 -11.679688 L 17.390625 -11.167969 L 12.445312 -11.167969 L 12.703125 -11.847656 Z M 14.917969 -18.15625 "/></g></g></g><g fill="rgb(100%, 100%, 100%)" fill-opacity="1"><g transform="translate(101.137176, 52.316381)"><g><path d="M 13.9375 -29.835938 L 2.089844 -29.835938 L 2.089844 0 L 13.9375 0 C 23.785156 0 28.726562 -7.417969 28.726562 -14.875 C 28.726562 -22.335938 23.785156 -29.835938 13.9375 -29.835938 Z M 13.9375 -6.949219 L 9.335938 -6.949219 L 9.335938 -22.929688 L 13.9375 -22.929688 C 18.96875 -22.929688 21.523438 -18.796875 21.523438 -14.875 C 21.523438 -10.953125 18.96875 -6.949219 13.9375 -6.949219 Z M 13.9375 -6.949219 "/></g></g></g><g fill="rgb(100%, 100%, 100%)" fill-opacity="1"><g transform="translate(131.992323, 52.316381)"><g><path d="M 12.273438 -30.175781 L 0.339844 0 L 8.140625 0 L 9.804688 -4.390625 L 19.988281 -4.390625 L 21.652344 0 L 29.878906 0 L 17.476562 -30.175781 Z M 14.917969 -18.15625 L 17.21875 -11.679688 L 17.390625 -11.167969 L 12.445312 -11.167969 L 12.703125 -11.847656 Z M 14.917969 -18.15625 "/></g></g></g><g fill="rgb(100%, 100%, 100%)" fill-opacity="1"><g transform="translate(162.676995, 52.316381)"><g><path d="M 15.769531 -18.285156 L 7.929688 -29.835938 L 2.132812 -29.835938 L 2.132812 0 L 9.417969 0 L 9.417969 -14.832031 L 13.722656 -8.398438 L 17.773438 -8.398438 L 22.078125 -14.746094 L 22.078125 0 L 29.324219 0 L 29.324219 -29.835938 L 23.613281 -29.835938 Z M 15.769531 -18.285156 "/></g></g></g><g fill="rgb(100%, 100%, 100%)" fill-opacity="1"><g transform="translate(195.151596, 52.316381)"><g/></g></g><g fill="rgb(100%, 100%, 100%)" fill-opacity="1"><g transform="translate(206.70109, 52.316381)"><g><path d="M 15.984375 -29.835938 L 2.171875 -29.835938 L 2.171875 0 L 15.898438 0 C 22.164062 0 25.445312 -4.816406 25.445312 -9.632812 C 25.445312 -12.148438 24.167969 -14.746094 21.011719 -16.367188 C 22.972656 -17.730469 23.867188 -19.820312 23.867188 -21.867188 C 23.867188 -25.785156 20.714844 -29.835938 15.984375 -29.835938 Z M 14.875 -19.050781 L 9.378906 -19.050781 L 9.378906 -23.230469 L 14.960938 -23.230469 C 16.109375 -23.230469 16.75 -22.207031 16.75 -21.183594 C 16.75 -20.117188 16.152344 -19.050781 14.875 -19.050781 Z M 15.898438 -6.90625 L 9.378906 -6.90625 L 9.378906 -12.316406 L 15.898438 -12.316406 C 17.433594 -12.316406 18.199219 -10.953125 18.199219 -9.589844 C 18.199219 -8.226562 17.433594 -6.90625 15.898438 -6.90625 Z M 15.898438 -6.90625 "/></g></g></g><g fill="rgb(100%, 100%, 100%)" fill-opacity="1"><g transform="translate(234.658251, 52.316381)"><g><path d="M 13.722656 -30.089844 L 2.132812 -30.089844 L 2.132812 0 L 9.378906 0 L 9.378906 -10.101562 L 10.570312 -10.101562 L 16.792969 0 L 24.550781 0 L 24.550781 -1.363281 L 18.15625 -10.824219 C 22.078125 -12.703125 23.996094 -16.539062 23.996094 -20.160156 C 23.996094 -25.105469 20.542969 -30.089844 13.722656 -30.089844 Z M 13.554688 -16.707031 L 9.378906 -16.707031 L 9.378906 -23.101562 L 13.554688 -23.101562 C 15.769531 -23.101562 16.878906 -21.4375 16.878906 -19.863281 C 16.878906 -18.328125 15.726562 -16.707031 13.554688 -16.707031 Z M 13.554688 -16.707031 "/></g></g></g><g fill="rgb(100%, 100%, 100%)" fill-opacity="1"><g transform="translate(261.422138, 52.316381)"><g><path d="M 2.171875 -14.875 C 2.171875 -6.09375 9.078125 0.425781 17.601562 0.425781 C 26.128906 0.425781 33.074219 -6.222656 33.074219 -14.875 C 33.074219 -23.65625 26.128906 -30.304688 17.601562 -30.304688 C 9.078125 -30.304688 2.171875 -23.65625 2.171875 -14.875 Z M 9.417969 -14.875 C 9.417969 -20.542969 13.511719 -23.316406 17.601562 -23.316406 C 21.695312 -23.316406 25.742188 -20.5 25.742188 -14.875 C 25.742188 -9.292969 21.609375 -6.480469 17.519531 -6.480469 C 13.425781 -6.480469 9.417969 -9.25 9.417969 -14.875 Z M 9.417969 -14.875 "/></g></g></g><g fill="rgb(100%, 100%, 100%)" fill-opacity="1"><g transform="translate(297.519221, 52.316381)"><g><path d="M 30.6875 0.171875 L 40.363281 -28.941406 L 40.363281 -29.835938 L 33.074219 -29.835938 L 27.363281 -12.574219 L 23.65625 -23.015625 L 17.476562 -23.015625 L 13.722656 -12.574219 L 8.011719 -29.835938 L 0.722656 -29.835938 L 0.722656 -28.941406 L 10.398438 0.171875 L 16.835938 0.171875 L 20.5 -10.1875 L 24.253906 0.171875 Z M 30.6875 0.171875 "/></g></g></g><g fill="rgb(100%, 100%, 100%)" fill-opacity="1"><g transform="translate(339.966298, 52.316381)"><g><path d="M 18.070312 -29.835938 L 18.070312 -14.917969 L 7.757812 -29.835938 L 2.132812 -29.835938 L 2.132812 0 L 9.378906 0 L 9.378906 -14.535156 L 19.5625 0 L 25.273438 0 L 25.273438 -29.835938 Z M 18.070312 -29.835938 "/></g></g></g></svg>